<?xml version="1.0" encoding="utf-8"?>
<!-- Generator: Adobe Illustrator 26.0.3, SVG Export Plug-In . SVG Version: 6.00 Build 0)  -->
<svg version="1.1" id="Layer_1" xmlns="http://www.w3.org/2000/svg" xmlns:xlink="http://www.w3.org/1999/xlink" x="0px" y="0px"
	 viewBox="0 0 275.4 308.6" style="enable-background:new 0 0 275.4 308.6;" xml:space="preserve">
<style type="text/css">
	.st0{fill:none;stroke:#F7BE00;stroke-width:0.5012;stroke-linecap:round;stroke-miterlimit:10;}
	.st1{fill:#FFC222;}
	.st2{fill:#FFFFFF;}
</style>
<g>
	<ellipse cx="137.2" cy="83.6" rx="79.4" ry="77.6"/>
	<path class="st0" d="M137.2,76.8"/>
	<g>
		<path class="st1" d="M137.2,0C90.1,0,51.8,37.5,51.8,83.6c0,46.1,38.3,83.6,85.4,83.6c47.1,0,85.4-37.5,85.4-83.6
			C222.6,37.5,184.3,0,137.2,0z M144.1,160.9c0-4.7-0.2-14.5,1.7-21.4c2-7.3,6.6-12.3,10.1-19.5c3.4-7.2,4.5-12.5,3-23.2
			c-0.7-4.7-6.9-38.5-8-43.9c-1.8,0-3.8,0-5.2,0c0,0,2.3,43,2.3,54.8c0,0.8-0.1,2.5-0.5,4h-4c-0.4-1.6-0.6-3.4-0.7-4.2
			c-0.1-0.5-0.2-1.9-0.3-3.8c-0.6-11.2-1.8-44.9-2.1-50.7c-0.1,0-0.3,0-0.4,0c0,0,0,0,0,0c-1.6,0-3.8,0-5.4,0c0,0,0,0,0,0
			c-0.1,0-0.3,0-0.4,0c-0.2,5.8-1.5,39.4-2.1,50.7c-0.1,2-0.2,3.4-0.3,3.9c-0.1,0.8-0.3,2.6-0.7,4.2H127c-0.3-1.5-0.4-3.2-0.4-4
			c0.1-11.8,2.1-54.8,2.1-54.8c-1.2,0-3.6,0-5.2,0c-1.1,5.4-7.4,39.3-8,43.9c-1.4,10.9-0.4,16,3,23.2c3.7,7.6,8.3,11.9,10.4,19.4
			c1.9,7,1.8,16.7,1.7,21.5c-40.8-3.3-72.8-36.6-72.8-77.3C57.8,40.7,93.4,6,137.2,6c43.8,0,79.4,34.7,79.4,77.6
			C216.6,124.2,184.7,157.5,144.1,160.9z"/>
		<g>
			<path class="st1" d="M168,44.5c-4.9-1.4-10-1.5-15-1.7l-1.7,0c-4-0.1-10.3-0.2-14.2-0.1c-3.8,0-10.1,0-14.2,0.1l-1.7,0
				c-4.9,0.1-10.1,0.3-15,1.7c-8.4,2.4-11.1,8.8-10.8,13.5c0.3,5.1,3.6,8.1,6.3,9.2c1.2,0.4,2.4,0.7,3.6,0.7c2.9,0,5.8-1.3,7.7-3.8
				c2-2.5,2.1-6,0.3-8.4c-0.8-1.1-2-1.8-3.2-2.1c-0.6-0.2-1.2-0.4-1.8-0.4c-2.5,0-4.6,2.1-4.6,4.6c0,2.3,1.7,4.2,3.8,4.5
				c-1.2,0.6-2.6,0.7-4,0.2c-0.1,0-2.9-1.2-3.1-4.8c-0.3-4.7,3.7-7.5,7.2-8.4c4.3-1.2,9.1-1.3,13.8-1.5l1.7,0c4-0.1,10.2-0.2,14-0.1
				v0c0,0,0,0,0.1,0c0,0,0,0,0.1,0v0c3.8,0,10,0,14,0.1l1.7,0c4.6,0.1,9.4,0.3,13.8,1.5c3.5,1,7.4,3.8,7.2,8.4
				c-0.2,3.7-3,4.8-3.1,4.8c-1.4,0.5-2.8,0.4-4-0.2c2.2-0.4,3.8-2.3,3.8-4.5c0-2.5-2.1-4.6-4.6-4.6c-0.6,0-1.3,0.1-1.8,0.4
				c-1.2,0.3-2.4,1-3.2,2.1c-1.8,2.4-1.7,5.9,0.3,8.4c1.9,2.4,4.8,3.8,7.7,3.8c1.2,0,2.4-0.2,3.6-0.7c2.7-1.1,6-4.1,6.3-9.2
				C179.1,53.3,176.4,46.9,168,44.5z"/>
		</g>
	</g>
	<g>
		<path class="st1" d="M120.6,144c1.4,0.4,2.8,0.8,4.3,1.1c-0.8-0.5-1.5-0.9-2.3-1.4c-2.3-1.6-4-3.9-5.4-6.3
			c-2.5-4.2-6.1-7.3-9.9-10.1c0.8,2.2,1.6,4.4,2.5,6.6c0.5,1.2,1,2.5,1.7,3.5c0.6,0.9,1.3,1.7,2.1,2.5c-4.4-1.9-8.5-4.3-12.2-7.2
			c-1.6-2.8-2.3-5.9-2.4-9.1c-0.3-4.8-2.1-9.1-4.3-13.4c-0.3,2.3-0.4,4.5-0.8,6.8c-0.7,4.5,0.5,8.5,3.2,12.1
			c-4.6-4.3-8.6-9.3-11.6-14.8c0.1-1.2,0.2-2.4,0.3-3.5c0.3-3.1,0.4-6.1-0.1-9.2C85,97.8,83.8,94,84.7,90c-0.1,0.1-0.2,0.1-0.2,0.2
			c-0.4,0.8-0.8,1.6-1.2,2.4c-2.3,5-2.9,10.2-0.8,15.5c0.1,0.3,0.2,0.6,0.3,0.9c-1.8-4.2-3.2-8.7-4-13.3c-0.4-3.3-0.2-5.5-0.2-8.6
			c0-3.4-0.3-6.7-1-10c-0.4-2.2-0.7-4.4-1.1-6.8c-0.6,1.7-1.1,3.4-1.6,5c-1.9,6.2-1.1,11.9,1,17.9c0.7,2,1.5,4.2,2.1,6.4
			c1.1,4.5,2.6,8.8,4.6,12.9c-2.1-2.5-4.4-4.8-7.1-6.7c-2-1.4-3.6-3.2-5-5.3c-0.2-0.3-0.4-0.6-0.6-0.9c0.2,1.3,0.5,2.6,0.9,3.8
			c1.5,4.9,3.9,9.1,8.4,12c2.8,1.8,5.6,3.5,8.3,5.2c4,5.7,8.9,10.6,14.6,14.6c-2.6-1.2-5.4-2.1-8.3-2.6c-3.3-0.5-6.5-1.4-9.3-3.2
			c1.8,2.3,3.9,4.4,6.3,6.2c2.6,1.8,5.4,3,8.5,3.4c1.5,0.2,2.9,0.2,4.4,0.4c2.2,0.2,4.4,0.5,6.6,0.7
			C113.7,141.7,117.1,143,120.6,144z"/>
		<path class="st1" d="M153.9,144c-1.4,0.4-2.8,0.8-4.3,1.1c0.8-0.5,1.5-0.9,2.3-1.4c2.3-1.6,4-3.9,5.4-6.3
			c2.5-4.2,6.1-7.3,9.9-10.1c-0.8,2.2-1.6,4.4-2.5,6.6c-0.5,1.2-1,2.5-1.7,3.5c-0.6,0.9-1.3,1.7-2.1,2.5c4.4-1.9,8.5-4.3,12.2-7.2
			c1.6-2.8,2.3-5.9,2.4-9.1c0.3-4.8,2.1-9.1,4.3-13.4c0.3,2.3,0.4,4.5,0.8,6.8c0.7,4.5-0.5,8.5-3.2,12.1c4.6-4.3,8.6-9.3,11.6-14.8
			c-0.1-1.2-0.2-2.4-0.3-3.5c-0.3-3.1-0.4-6.1,0.1-9.2c0.6-3.8,1.8-7.5,0.9-11.5c0.1,0.1,0.2,0.1,0.2,0.2c0.4,0.8,0.8,1.6,1.2,2.4
			c2.3,5,2.9,10.2,0.8,15.5c-0.1,0.3-0.2,0.6-0.3,0.9c1.8-4.2,3.2-8.7,4-13.3c0.4-3.3,0.2-5.5,0.2-8.6c0-3.4,0.3-6.7,1-10
			c0.4-2.2,0.7-4.4,1.1-6.8c0.6,1.7,1.1,3.4,1.6,5c1.9,6.2,1.1,11.9-1,17.9c-0.7,2-1.5,4.2-2.1,6.4c-1.1,4.5-2.6,8.8-4.6,12.9
			c2.1-2.5,4.4-4.8,7.1-6.7c2-1.4,3.6-3.2,5-5.3c0.2-0.3,0.4-0.6,0.6-0.9c-0.2,1.3-0.5,2.6-0.9,3.8c-1.5,4.9-3.9,9.1-8.4,12
			c-2.8,1.8-5.6,3.5-8.3,5.2c-4,5.7-8.9,10.6-14.6,14.6c2.6-1.2,5.4-2.1,8.3-2.6c3.3-0.5,6.5-1.4,9.3-3.2c-1.8,2.3-3.9,4.4-6.3,6.2
			c-2.6,1.8-5.4,3-8.5,3.4c-1.5,0.2-2.9,0.2-4.4,0.4c-2.2,0.2-4.4,0.5-6.6,0.7C160.8,141.7,157.4,143,153.9,144z"/>
	</g>
	<g>
		<polygon class="st2" points="137.2,16.1 139.1,21.8 145.1,21.8 140.3,25.4 142.1,31.1 137.2,27.6 132.3,31.1 134.2,25.4 
			129.3,21.8 135.4,21.8 		"/>
		<g>
			<polygon class="st2" points="153.3,20.6 154.6,25.1 159.3,25.3 155.4,27.9 156.7,32.3 153,29.5 149.1,32.1 150.7,27.7 
				147.1,24.8 151.7,25 			"/>
			<polygon class="st2" points="121.1,21.2 122.7,25.5 127.4,25.4 123.7,28.2 125.3,32.6 121.5,30 117.8,32.9 119.1,28.4 
				115.2,25.8 119.9,25.6 			"/>
		</g>
		<g>
			<polygon class="st2" points="108.4,27.1 109.7,30.7 113.5,30.5 110.5,32.9 111.8,36.4 108.7,34.3 105.7,36.6 106.7,33 
				103.6,30.9 107.4,30.8 			"/>
			<polygon class="st2" points="165.8,27.1 167.1,30.7 170.9,30.5 167.9,32.9 169.2,36.4 166,34.3 163.1,36.6 164.1,33 161,30.9 
				164.8,30.8 			"/>
		</g>
	</g>
</g>
<path class="st0" d="M137.6,76.2"/>
<g>
	<path class="st2" d="M29.4,231.3c1.4,1.8,2.1,3.8,2.1,6c0,1.9-0.5,3.6-1.5,5.2c-1,1.5-2.4,2.7-4.3,3.6c-1.9,0.9-4,1.3-6.5,1.3h-15
		v-37.5h14.3c2.6,0,4.8,0.4,6.6,1.3c1.8,0.9,3.2,2,4.2,3.5c0.9,1.5,1.4,3.1,1.4,4.9c0,2.2-0.6,4-1.7,5.4s-2.7,2.5-4.6,3.2
		C26.3,228.5,28,229.6,29.4,231.3z M10.3,225.6H18c2,0,3.6-0.5,4.7-1.4c1.1-0.9,1.7-2.2,1.7-4c0-1.7-0.6-3-1.7-4s-2.7-1.4-4.7-1.4
		h-7.6V225.6z M23.6,240.9c1.2-1,1.8-2.4,1.8-4.2c0-1.8-0.6-3.3-1.9-4.4c-1.3-1.1-2.9-1.6-5-1.6h-8.1v11.7h8.3
		C20.7,242.4,22.4,241.9,23.6,240.9z"/>
	<path class="st2" d="M52.4,214.9v11h13v5h-13v11.5H67v5H46.2v-37.6H67v5H52.4z"/>
	<path class="st2" d="M86.5,246.5c-2-0.9-3.6-2.1-4.8-3.8c-1.2-1.6-1.7-3.5-1.7-5.7h6.6c0.1,1.6,0.8,3,1.9,4c1.1,1,2.7,1.6,4.8,1.6
		c2.1,0,3.8-0.5,5-1.5s1.8-2.3,1.8-4c0-1.3-0.4-2.3-1.1-3.1c-0.7-0.8-1.7-1.4-2.8-1.8c-1.1-0.4-2.6-0.9-4.6-1.4
		c-2.4-0.6-4.4-1.3-6-2c-1.5-0.7-2.8-1.7-3.9-3.1c-1.1-1.4-1.6-3.3-1.6-5.6c0-2.2,0.5-4,1.6-5.7c1.1-1.6,2.6-2.9,4.5-3.7
		c1.9-0.9,4.2-1.3,6.8-1.3c3.6,0,6.6,0.9,8.9,2.7c2.3,1.8,3.6,4.3,3.9,7.5H99c-0.1-1.4-0.8-2.5-1.9-3.5c-1.2-1-2.8-1.5-4.7-1.5
		c-1.8,0-3.2,0.5-4.3,1.3c-1.1,0.9-1.7,2.2-1.7,3.9c0,1.2,0.4,2.1,1.1,2.8c0.7,0.7,1.6,1.3,2.7,1.8c1.1,0.4,2.6,0.9,4.4,1.4
		c2.5,0.7,4.5,1.4,6.1,2.1c1.6,0.7,2.9,1.7,4,3.2c1.1,1.4,1.6,3.3,1.6,5.7c0,1.9-0.5,3.7-1.5,5.4c-1,1.7-2.5,3.1-4.5,4.1
		s-4.3,1.5-6.9,1.5C90.7,247.8,88.5,247.3,86.5,246.5z"/>
	<path class="st2" d="M144.2,209.9v5h-10v32.5h-6.2v-32.5h-10v-5H144.2z"/>
	<path class="st2" d="M194.7,209.9v5h-15.9V226h12.4v5h-12.4v16.4h-6.2v-37.5H194.7z"/>
	<path class="st2" d="M213.6,214.9v11h13v5h-13v11.5h14.6v5h-20.7v-37.6h20.7v5H213.6z"/>
	<path class="st2" d="M266,212.2c3,1.5,5.3,3.7,7,6.6c1.6,2.9,2.5,6.2,2.5,10c0,3.8-0.8,7.1-2.5,9.9c-1.6,2.8-4,5-7,6.5
		c-3,1.5-6.5,2.2-10.5,2.2h-12.3v-37.5h12.3C259.4,209.9,263,210.6,266,212.2z M265.6,238.8c2.3-2.4,3.5-5.7,3.5-10
		c0-4.4-1.2-7.8-3.5-10.2s-5.7-3.7-10.1-3.7h-6.1v27.5h6.1C259.8,242.4,263.2,241.2,265.6,238.8z"/>
	<path class="st1" d="M34.7,276.4c-1.2-2.2-2.8-3.9-4.8-5c-2.1-1.1-4.4-1.7-7.1-1.7c-2.9,0-5.6,0.7-7.9,2c-2.3,1.3-4.1,3.2-5.4,5.6
		c-1.3,2.4-2,5.3-2,8.5s0.7,6,2,8.5c1.3,2.5,3.1,4.4,5.4,5.7c2.3,1.3,4.9,2,7.9,2c4,0,7.2-1.1,9.7-3.3s4-5.2,4.6-9H20.3v-5.8h24.6
		v5.7c-0.5,3.5-1.7,6.6-3.7,9.6c-2,2.9-4.6,5.2-7.8,7s-6.7,2.6-10.6,2.6c-4.2,0-8-1-11.5-2.9c-3.5-1.9-6.2-4.6-8.2-8.1
		s-3-7.4-3-11.7c0-4.4,1-8.3,3-11.7s4.8-6.2,8.3-8.1c3.5-1.9,7.3-2.9,11.4-2.9c4.7,0,9,1.2,12.7,3.5c3.7,2.3,6.4,5.6,8,9.9H34.7z"/>
	<path class="st1" d="M84.7,308.2l-10.3-17.8h-5.6v17.8h-7.3v-44.6h15.4c3.4,0,6.3,0.6,8.7,1.8c2.4,1.2,4.1,2.8,5.3,4.8
		c1.2,2,1.8,4.3,1.8,6.7c0,2.9-0.8,5.5-2.5,7.9c-1.7,2.4-4.3,4-7.8,4.8l11,18.5H84.7z M68.8,284.5h8.1c2.7,0,4.8-0.7,6.2-2.1
		c1.4-1.4,2.1-3.2,2.1-5.5c0-2.3-0.7-4.1-2.1-5.4c-1.4-1.3-3.4-2-6.2-2h-8.1V284.5z"/>
	<path class="st1" d="M117.8,269.5v13.1h15.4v6h-15.4v13.7h17.3v6h-24.6v-44.6h24.6v6H117.8z"/>
	<path class="st1" d="M160.1,269.5v13.1h15.4v6h-15.4v13.7h17.3v6h-24.6v-44.6h24.6v6H160.1z"/>
	<path class="st1" d="M219.7,308.2l-17.3-19.9v19.9h-7.3v-44.6h7.3v20.3l17.3-20.3h9.2l-19.4,22.3l19.7,22.3H219.7z"/>
	<path class="st1" d="M248.3,307c-2.4-1-4.3-2.5-5.6-4.5c-1.4-1.9-2.1-4.2-2.1-6.7h7.8c0.2,1.9,0.9,3.5,2.3,4.7
		c1.3,1.2,3.2,1.9,5.7,1.9c2.5,0,4.5-0.6,5.9-1.8c1.4-1.2,2.1-2.8,2.1-4.7c0-1.5-0.4-2.7-1.3-3.7c-0.9-0.9-2-1.7-3.3-2.2
		c-1.3-0.5-3.1-1.1-5.4-1.7c-2.9-0.8-5.3-1.5-7.1-2.3c-1.8-0.8-3.4-2-4.6-3.7c-1.3-1.7-1.9-3.9-1.9-6.7c0-2.6,0.6-4.8,1.9-6.7
		c1.3-1.9,3.1-3.4,5.4-4.4c2.3-1,5-1.5,8-1.5c4.3,0,7.9,1.1,10.6,3.2c2.8,2.2,4.3,5.1,4.6,8.9h-8.1c-0.1-1.6-0.9-3-2.3-4.2
		c-1.4-1.2-3.3-1.7-5.6-1.7c-2.1,0-3.8,0.5-5.1,1.6c-1.3,1.1-2,2.6-2,4.6c0,1.4,0.4,2.5,1.3,3.4c0.8,0.9,1.9,1.6,3.2,2.1
		c1.3,0.5,3,1.1,5.3,1.7c3,0.8,5.4,1.6,7.2,2.4c1.9,0.8,3.4,2.1,4.7,3.8c1.3,1.7,2,3.9,2,6.8c0,2.3-0.6,4.4-1.8,6.4
		c-1.2,2-3,3.6-5.3,4.8c-2.3,1.2-5.1,1.8-8.2,1.8C253.4,308.6,250.7,308.1,248.3,307z"/>
</g>
</svg>
