<?xml version="1.0" encoding="utf-8"?>
<!-- Generator: Adobe Illustrator 23.0.3, SVG Export Plug-In . SVG Version: 6.00 Build 0)  -->
<svg version="1.1" id="Layer_1" xmlns="http://www.w3.org/2000/svg" xmlns:xlink="http://www.w3.org/1999/xlink" x="0px" y="0px"
	 viewBox="0 0 250 250" style="enable-background:new 0 0 250 250;" xml:space="preserve">
<style type="text/css">
	.st0{fill:#12284b;}
</style>
<path class="st0" d="M230.5,98.6C230.5,98.5,230.5,98.5,230.5,98.6C230.5,98.5,230.5,98.6,230.5,98.6s3.4-36.3-36.5-25.3
	c-3.4-3.2-8.9-8.5-11.8-10.2c-22.4-13.3-48.9-15.6-73-6.3c-5.7,2.2-17.4,8.2-17.4,8.2S79.1,63.4,73.5,63c-9.3-0.7-19.3-1.3-27.9,3.1
	c-4.6,2.4-8.1,6-10.4,10.6c-1.3,2.6-2.8,8.2-2.8,8.2S25,90.7,23,92.1c-14.6,10.6-12.2,29.2-3.5,42.7c4.8,7.4,11.3,12.9,17,19.5
	c3.7,4.4,4.2,10.9,5.9,16.6c3.4,11.4,8.6,29.4,8.9,27.9c47.1-22.3,141-4.5,141-4.5c-30.9-12.1-93.4-26.4-134.5-2.7
	c0-0.8,0.1-1.6,0.1-2.4c-0.1-9.1-4.1-17.6-5.8-26.5c55.8-24.3,113-7.7,130.3,1.7c-8.4-10.2-38.5-20.1-38.5-20.1s-5.4-45.5-59.1-46.1
	c44.9,13.1,46.4,44.3,46.4,44.3s-32.5-2.7-42.1-0.3c-9.6-15.1-31.2-22.7-42.3-24.5c15.5,8.8,28,20.1,27.9,26.3
	c-7.5,1.5-17.7,4-24.8,6.9c-1.5,0.6-14.8-15.2-18.3-22.2c-6.1-12.3-3.2-26.8,5.3-36.3c6.7-7.4,9.6-17.6,20.2-20.2
	c5-1.2,10.4-1.4,15.5-1.3c5.9,0.1,19.1,1.5,19.1,1.5s14.6-9.8,40.6-11.2c26-1.4,60.1,18.7,60.1,18.7s8.4,0.2,12.3,0.8
	c7.7,1.2,15.3,4.3,17.2,12.7c-0.8-0.5,15.5,32.7-13,50.3c-6.9,4.3-10.1,7.8-10.9,16.5c-1.1,12.6-3.1,35-3.1,35s3.7,1,5.9,1.7
	c4.2-12.7,6-21.7,9.5-37c1.1-4.9,3.1-5.8,6.9-8.9c5-4.1,9.8-9.4,13.6-14.5C239.5,125,240.1,109.7,230.5,98.6z"/>
</svg>
