<?xml version="1.0" encoding="utf-8"?>
<!-- Generator: Adobe Illustrator 23.0.3, SVG Export Plug-In . SVG Version: 6.00 Build 0)  -->
<svg version="1.1" id="Layer_1" xmlns="http://www.w3.org/2000/svg" xmlns:xlink="http://www.w3.org/1999/xlink" x="0px" y="0px"
	 viewBox="0 0 250 250" style="enable-background:new 0 0 250 250;" xml:space="preserve">
<style type="text/css">
	.st0{fill:#FFFFFF;}
</style>
<path class="st0" d="M143.2,112.6c2.4-2.4,4.3-5.2,7.1-7c1.3-0.8,3.4-1.1,5-0.7c2.8,0.7,8.2,2.6,12.3-1.3
	c4.1-3.9,32.9-34.9,44.6-50.7c0,0,0.5-0.7,0.3-1c-0.3-0.3-0.8,0.1-1.1,0.4c0,0-19.4,18.4-26.9,26.3c-0.5,0.5-1.9,2-2.8,1.1
	c-0.9-0.9-0.7-2.2,1.9-4.9c2.6-2.6,23.4-27,23.4-27s0.6-0.7,0.2-1.1c-0.4-0.4-1,0.3-1,0.3s-18,17.3-26.1,25
	c-0.8,0.7-2.6,3.1-3.9,1.8c-1.3-1.3,1.1-3.1,1.8-3.9c7.7-8.2,25-26.1,25-26.1s0.7-0.6,0.3-1c-0.4-0.4-1.1,0.2-1.1,0.2
	s-24.3,20.8-27,23.4c-2.6,2.6-4,2.8-4.8,1.9c-0.9-0.9,0.5-2.2,1.1-2.8c8-7.5,26.3-26.9,26.3-26.9c0.2-0.2,0.6-0.8,0.4-1.1
	c-0.3-0.3-1,0.3-1,0.3c-15.8,11.7-46.8,40.5-50.7,44.6c-3.9,4.1-2,9.5-1.3,12.3c0.4,1.6,0.1,3.7-0.7,5c-1.8,2.8-4.7,4.8-7,7.1
	c-4.8,4.7-9.6,9.4-14.4,14c-0.7,0.7-1.4,1.3-2.1,2c-2.5-2.4-5-4.7-7.4-7.2c-3.5-3.5-7.6-6.6-10.4-10.7c-0.9-1.3-1.3-3.2-1.2-4.9
	c0.1-4.9,2.5-22-14.1-38.6C71.2,44.9,51.4,41.4,42.3,50.4c-9,9-5.5,28.9,11.1,45.4C70,112.4,87.2,110,92.1,109.9
	c1.8-0.1,3.6,0.3,4.9,1.2c4.1,2.8,7.2,6.9,10.7,10.4c2.3,2.4,4.6,4.8,7,7.2c-2.1,2-4.2,4-6.4,5.9c-4.9,4.6-10,9-15.1,13.4
	c-2.6,2.2-5.2,4.3-7.8,6.5l-7.8,6.4c-5.2,4.3-10.3,8.7-15.3,13.2c-2.5,2.3-5,4.5-7.4,6.8c-2.5,2.3-4.8,4.7-7,7.2
	c-1.1,1.3-2.2,2.6-3.2,3.9c-0.5,0.7-1,1.3-1.5,2c-0.5,0.7-1,1.4-1.5,2.1c-0.9,1.4-1.8,3-2.5,4.6c-0.4,0.8-0.7,1.7-1,2.6
	c-0.3,0.9-0.5,1.8-0.7,2.9c-0.1,0.5-0.1,1.1,0,1.6c0.5,2.9,3.3,4.9,6.1,4.5c1-0.1,2-0.4,2.9-0.7c0.9-0.3,1.8-0.6,2.6-1
	c1.7-0.7,3.2-1.6,4.6-2.5c0.7-0.5,1.4-1,2.1-1.5c0.7-0.5,1.4-1,2-1.5c1.3-1,2.7-2.1,3.9-3.2c2.6-2.2,4.9-4.5,7.2-7
	c2.3-2.4,4.6-4.9,6.8-7.4c4.5-5,8.9-10.1,13.2-15.3l6.4-7.8c2.1-2.6,4.3-5.2,6.5-7.8c4.3-5.1,8.8-10.2,13.4-15.1
	c1.9-2.1,3.9-4.1,5.8-6.2c3.9,4.1,7.7,8.2,11.5,12.4c4.1,4.5,8.1,9.1,12,13.8c2,2.3,3.9,4.7,5.8,7.1l5.8,7.1
	c3.9,4.7,7.8,9.4,11.8,13.9c2,2.3,4.1,4.5,6.1,6.7c2.1,2.2,4.2,4.4,6.6,6.3c1.2,1,2.4,1.9,3.6,2.8c0.6,0.5,1.2,0.9,1.9,1.4
	c0.6,0.4,1.3,0.9,1.9,1.3c1.3,0.8,2.7,1.6,4.3,2.2c0.8,0.3,1.6,0.6,2.4,0.8c0.8,0.2,1.7,0.4,2.7,0.5c0.3,0,0.7,0,1,0
	c3.2-0.3,5.5-3.1,5.2-6.2c-0.1-1-0.3-1.9-0.5-2.7c-0.2-0.9-0.5-1.7-0.8-2.4c-0.6-1.5-1.3-3-2.2-4.3c-0.4-0.7-0.9-1.3-1.3-1.9
	c-0.4-0.6-0.9-1.2-1.4-1.9c-0.9-1.2-1.9-2.4-2.8-3.6c-2-2.3-4.1-4.5-6.3-6.6c-2.2-2.1-4.5-4.1-6.7-6.1c-4.5-4-9.2-8-13.9-11.8
	l-7.1-5.8c-2.4-1.9-4.7-3.8-7.1-5.8c-4.7-3.9-9.3-7.9-13.8-12c-4.2-3.9-8.4-7.8-12.6-11.7c0.6-0.7,1.3-1.4,1.9-2
	C133.8,122.2,138.5,117.3,143.2,112.6z"/>
</svg>
