<?xml version="1.0" encoding="utf-8"?>
<!-- Generator: Adobe Illustrator 23.0.3, SVG Export Plug-In . SVG Version: 6.00 Build 0)  -->
<svg version="1.1" id="Layer_1" xmlns="http://www.w3.org/2000/svg" xmlns:xlink="http://www.w3.org/1999/xlink" x="0px" y="0px"
	 viewBox="0 0 150 150" style="enable-background:new 0 0 150 150;" xml:space="preserve">
<style type="text/css">
	.st0{fill:#F89C24;}
</style>
<path class="st0" d="M100,59.4v31.3c0,5.2-4.2,9.4-9.4,9.4h-6.1V80.6H91l1-7.6h-7.5v-4.8c0-2.2,0.6-3.6,3.7-3.6l4,0v-6.7
	c-0.7-0.1-3.1-0.3-5.8-0.3c-5.8,0-9.7,3.5-9.7,10v5.6h-6.5v7.6h6.5V100H59.4c-5.2,0-9.4-4.2-9.4-9.4V59.4c0-5.2,4.2-9.4,9.4-9.4
	h31.3C95.8,50,100,54.2,100,59.4z"/>
<path class="st0" d="M75,9c36.4,0,66,29.6,66,66s-29.6,66-66,66S9,111.4,9,75S38.6,9,75,9 M75,5C36.3,5,5,36.3,5,75s31.3,70,70,70
	s70-31.3,70-70S113.7,5,75,5L75,5z"/>
</svg>
