<?xml version="1.0" encoding="utf-8"?>
<!-- Generator: Adobe Illustrator 23.0.3, SVG Export Plug-In . SVG Version: 6.00 Build 0)  -->
<svg version="1.1" id="Layer_1" xmlns="http://www.w3.org/2000/svg" xmlns:xlink="http://www.w3.org/1999/xlink" x="0px" y="0px"
	 viewBox="0 0 150 150" style="enable-background:new 0 0 150 150;" xml:space="preserve">
<style type="text/css">
	.st0{fill:#F89C24;}
</style>
<g>
	<path class="st0" d="M100,90.6c0,5.2-4.2,9.4-9.4,9.4H59.4c-5.2,0-9.4-4.2-9.4-9.4V59.4c0-5.2,4.2-9.4,9.4-9.4h31.3
		c5.2,0,9.4,4.2,9.4,9.4V90.6z M79.7,73.2H67.9v4.3h7.1c-0.3,1.8-2.1,5.4-7.1,5.4c-4.3,0-7.8-3.5-7.8-7.9s3.5-7.9,7.8-7.9
		c2.4,0,4,1,5,1.9l3.4-3.3c-2.2-2-5-3.3-8.4-3.3c-6.9,0-12.5,5.6-12.5,12.5s5.6,12.5,12.5,12.5c7.2,0,12-5.1,12-12.2
		C79.9,74.5,79.8,73.8,79.7,73.2z M94.6,76.8v-3.6h-3.5v-3.6h-3.6v3.6h-3.6v3.6h3.6v3.6h3.6v-3.6H94.6z"/>
	<path class="st0" d="M75,9c36.4,0,66,29.6,66,66s-29.6,66-66,66S9,111.4,9,75S38.6,9,75,9 M75,5C36.3,5,5,36.3,5,75s31.3,70,70,70
		s70-31.3,70-70S113.7,5,75,5L75,5z"/>
</g>
</svg>
