<?xml version="1.0" encoding="utf-8"?>
<!-- Generator: Adobe Illustrator 23.0.3, SVG Export Plug-In . SVG Version: 6.00 Build 0)  -->
<svg version="1.1" id="Layer_1" xmlns="http://www.w3.org/2000/svg" xmlns:xlink="http://www.w3.org/1999/xlink" x="0px" y="0px"
	 viewBox="0 0 150 150" style="enable-background:new 0 0 150 150;" xml:space="preserve">
<style type="text/css">
	.st0{fill:#F89C24;}
</style>
<g>
	<path class="st0" d="M75,9c36.4,0,66,29.6,66,66s-29.6,66-66,66S9,111.4,9,75S38.6,9,75,9 M75,5C36.3,5,5,36.3,5,75s31.3,70,70,70
		s70-31.3,70-70S113.7,5,75,5L75,5z"/>
	<path class="st0" d="M99.8,85.3c-0.2,4-1.1,7.6-4,10.5c-2.9,2.9-6.5,3.8-10.5,4C81.9,100,78.4,100,75,100s-6.9,0-10.3-0.2
		c-4-0.2-7.6-1.1-10.5-4c-2.9-2.9-3.8-6.5-4-10.5C50,81.9,50,78.4,50,75s0-6.9,0.2-10.3c0.2-4,1.1-7.6,4-10.5
		c2.9-2.9,6.5-3.8,10.5-4C68.1,50,71.6,50,75,50s6.9,0,10.3,0.2c4,0.2,7.6,1.1,10.5,4c2.9,2.9,3.8,6.5,4,10.5
		c0.2,3.4,0.2,6.9,0.2,10.3S100,81.9,99.8,85.3z M60.3,55.5c-1.1,0.5-2,1-2.9,1.9c-0.9,0.9-1.4,1.7-1.9,2.9c-1.3,3.3-1,11.1-1,14.7
		s-0.3,11.5,1,14.7c0.5,1.1,1,2,1.9,2.9c0.9,0.9,1.7,1.4,2.9,1.9c3.3,1.3,11.1,1,14.7,1s11.5,0.3,14.7-1c1.1-0.5,2-1,2.9-1.9
		c0.9-0.9,1.4-1.7,1.9-2.9c1.3-3.3,1-11.1,1-14.7s0.3-11.5-1-14.7c-0.5-1.1-1-2-1.9-2.9c-0.9-0.9-1.7-1.4-2.9-1.9
		c-3.3-1.3-11.1-1-14.7-1S63.5,54.2,60.3,55.5z M75,87.8c-7.1,0-12.8-5.7-12.8-12.8S67.9,62.2,75,62.2S87.8,67.9,87.8,75
		S82.1,87.8,75,87.8z M75,66.7c-4.6,0-8.3,3.7-8.3,8.3s3.7,8.3,8.3,8.3s8.3-3.7,8.3-8.3S79.6,66.7,75,66.7z M88.3,64.6
		c-1.7,0-3-1.3-3-3c0-1.7,1.3-3,3-3c1.7,0,3,1.3,3,3C91.3,63.3,90,64.6,88.3,64.6z"/>
</g>
</svg>
